<svg width="1310" height="251" viewBox="0 0 1310 251" fill="none" xmlns="http://www.w3.org/2000/svg">
<path d="M565.007 50H556.757V26.7273H565.075C567.416 26.7273 569.431 27.1932 571.121 28.125C572.81 29.0492 574.109 30.3788 575.018 32.1136C575.935 33.8485 576.393 35.9242 576.393 38.3409C576.393 40.7652 575.935 42.8485 575.018 44.5909C574.109 46.3333 572.803 47.6705 571.098 48.6023C569.401 49.5341 567.371 50 565.007 50ZM561.678 45.7841H564.803C566.257 45.7841 567.481 45.5265 568.473 45.0114C569.473 44.4886 570.223 43.6818 570.723 42.5909C571.231 41.4924 571.484 40.0758 571.484 38.3409C571.484 36.6212 571.231 35.2159 570.723 34.125C570.223 33.0341 569.477 32.2311 568.484 31.7159C567.492 31.2008 566.268 30.9432 564.814 30.9432H561.678V45.7841ZM584.925 50.3295C583.811 50.3295 582.819 50.1364 581.947 49.75C581.076 49.3561 580.387 48.7765 579.879 48.0114C579.379 47.2386 579.129 46.2765 579.129 45.125C579.129 44.1553 579.307 43.3409 579.663 42.6818C580.019 42.0227 580.504 41.4924 581.118 41.0909C581.732 40.6894 582.429 40.3864 583.209 40.1818C583.997 39.9773 584.822 39.8333 585.686 39.75C586.701 39.6439 587.519 39.5455 588.141 39.4545C588.762 39.3561 589.213 39.2121 589.493 39.0227C589.773 38.8333 589.913 38.553 589.913 38.1818V38.1136C589.913 37.3939 589.686 36.8371 589.232 36.4432C588.785 36.0492 588.148 35.8523 587.322 35.8523C586.451 35.8523 585.758 36.0455 585.243 36.4318C584.728 36.8106 584.387 37.2879 584.22 37.8636L579.743 37.5C579.97 36.4394 580.417 35.5227 581.084 34.75C581.75 33.9697 582.61 33.3712 583.663 32.9545C584.724 32.5303 585.951 32.3182 587.345 32.3182C588.315 32.3182 589.243 32.4318 590.129 32.6591C591.023 32.8864 591.815 33.2386 592.504 33.7159C593.201 34.1932 593.75 34.8068 594.152 35.5568C594.554 36.2992 594.754 37.1894 594.754 38.2273V50H590.163V47.5795H590.027C589.747 48.125 589.372 48.6061 588.902 49.0227C588.432 49.4318 587.868 49.7538 587.209 49.9886C586.55 50.2159 585.788 50.3295 584.925 50.3295ZM586.311 46.9886C587.023 46.9886 587.652 46.8485 588.197 46.5682C588.743 46.2803 589.171 45.8939 589.482 45.4091C589.792 44.9242 589.947 44.375 589.947 43.7614V41.9091C589.796 42.0076 589.588 42.0985 589.322 42.1818C589.065 42.2576 588.773 42.3295 588.447 42.3977C588.122 42.4583 587.796 42.5152 587.47 42.5682C587.144 42.6136 586.849 42.6553 586.584 42.6932C586.016 42.7765 585.519 42.9091 585.095 43.0909C584.671 43.2727 584.341 43.5189 584.107 43.8295C583.872 44.1326 583.754 44.5114 583.754 44.9659C583.754 45.625 583.993 46.1288 584.47 46.4773C584.955 46.8182 585.569 46.9886 586.311 46.9886ZM607.794 32.5455V36.1818H597.283V32.5455H607.794ZM599.669 28.3636H604.51V44.6364C604.51 45.0833 604.578 45.4318 604.714 45.6818C604.851 45.9242 605.04 46.0947 605.283 46.1932C605.533 46.2917 605.821 46.3409 606.146 46.3409C606.374 46.3409 606.601 46.322 606.828 46.2841C607.055 46.2386 607.23 46.2045 607.351 46.1818L608.112 49.7841C607.87 49.8598 607.529 49.947 607.089 50.0455C606.65 50.1515 606.116 50.2159 605.487 50.2386C604.321 50.2841 603.298 50.1288 602.419 49.7727C601.548 49.4167 600.87 48.8636 600.385 48.1136C599.9 47.3636 599.661 46.4167 599.669 45.2727V28.3636ZM615.925 50.3295C614.811 50.3295 613.819 50.1364 612.947 49.75C612.076 49.3561 611.387 48.7765 610.879 48.0114C610.379 47.2386 610.129 46.2765 610.129 45.125C610.129 44.1553 610.307 43.3409 610.663 42.6818C611.019 42.0227 611.504 41.4924 612.118 41.0909C612.732 40.6894 613.429 40.3864 614.209 40.1818C614.997 39.9773 615.822 39.8333 616.686 39.75C617.701 39.6439 618.519 39.5455 619.141 39.4545C619.762 39.3561 620.213 39.2121 620.493 39.0227C620.773 38.8333 620.913 38.553 620.913 38.1818V38.1136C620.913 37.3939 620.686 36.8371 620.232 36.4432C619.785 36.0492 619.148 35.8523 618.322 35.8523C617.451 35.8523 616.758 36.0455 616.243 36.4318C615.728 36.8106 615.387 37.2879 615.22 37.8636L610.743 37.5C610.97 36.4394 611.417 35.5227 612.084 34.75C612.75 33.9697 613.61 33.3712 614.663 32.9545C615.724 32.5303 616.951 32.3182 618.345 32.3182C619.315 32.3182 620.243 32.4318 621.129 32.6591C622.023 32.8864 622.815 33.2386 623.504 33.7159C624.201 34.1932 624.75 34.8068 625.152 35.5568C625.554 36.2992 625.754 37.1894 625.754 38.2273V50H621.163V47.5795H621.027C620.747 48.125 620.372 48.6061 619.902 49.0227C619.432 49.4318 618.868 49.7538 618.209 49.9886C617.55 50.2159 616.788 50.3295 615.925 50.3295ZM617.311 46.9886C618.023 46.9886 618.652 46.8485 619.197 46.5682C619.743 46.2803 620.171 45.8939 620.482 45.4091C620.792 44.9242 620.947 44.375 620.947 43.7614V41.9091C620.796 42.0076 620.588 42.0985 620.322 42.1818C620.065 42.2576 619.773 42.3295 619.447 42.3977C619.122 42.4583 618.796 42.5152 618.47 42.5682C618.144 42.6136 617.849 42.6553 617.584 42.6932C617.016 42.7765 616.519 42.9091 616.095 43.0909C615.671 43.2727 615.341 43.5189 615.107 43.8295C614.872 44.1326 614.754 44.5114 614.754 44.9659C614.754 45.625 614.993 46.1288 615.47 46.4773C615.955 46.8182 616.569 46.9886 617.311 46.9886ZM641.018 50H635.746L643.78 26.7273H650.121L658.143 50H652.871L647.041 32.0455H646.859L641.018 50ZM640.689 40.8523H653.143V44.6932H640.689V40.8523ZM665.695 39.9091V50H660.854V32.5455H665.467V35.625H665.672C666.058 34.6098 666.706 33.8068 667.615 33.2159C668.524 32.6174 669.626 32.3182 670.922 32.3182C672.134 32.3182 673.191 32.5833 674.092 33.1136C674.994 33.6439 675.695 34.4015 676.195 35.3864C676.695 36.3636 676.945 37.5303 676.945 38.8864V50H672.104V39.75C672.111 38.6818 671.839 37.8485 671.286 37.25C670.732 36.6439 669.971 36.3409 669.001 36.3409C668.35 36.3409 667.774 36.4811 667.274 36.7614C666.782 37.0417 666.395 37.4508 666.115 37.9886C665.842 38.5189 665.702 39.1591 665.695 39.9091ZM685.737 50.3295C684.624 50.3295 683.631 50.1364 682.76 49.75C681.889 49.3561 681.199 48.7765 680.692 48.0114C680.192 47.2386 679.942 46.2765 679.942 45.125C679.942 44.1553 680.12 43.3409 680.476 42.6818C680.832 42.0227 681.317 41.4924 681.93 41.0909C682.544 40.6894 683.241 40.3864 684.021 40.1818C684.809 39.9773 685.635 39.8333 686.499 39.75C687.514 39.6439 688.332 39.5455 688.953 39.4545C689.574 39.3561 690.025 39.2121 690.305 39.0227C690.586 38.8333 690.726 38.553 690.726 38.1818V38.1136C690.726 37.3939 690.499 36.8371 690.044 36.4432C689.597 36.0492 688.961 35.8523 688.135 35.8523C687.264 35.8523 686.571 36.0455 686.055 36.4318C685.54 36.8106 685.199 37.2879 685.033 37.8636L680.555 37.5C680.783 36.4394 681.23 35.5227 681.896 34.75C682.563 33.9697 683.423 33.3712 684.476 32.9545C685.536 32.5303 686.764 32.3182 688.158 32.3182C689.127 32.3182 690.055 32.4318 690.942 32.6591C691.836 32.8864 692.627 33.2386 693.317 33.7159C694.014 34.1932 694.563 34.8068 694.964 35.5568C695.366 36.2992 695.567 37.1894 695.567 38.2273V50H690.976V47.5795H690.839C690.559 48.125 690.184 48.6061 689.714 49.0227C689.245 49.4318 688.68 49.7538 688.021 49.9886C687.362 50.2159 686.601 50.3295 685.737 50.3295ZM687.124 46.9886C687.836 46.9886 688.464 46.8485 689.01 46.5682C689.555 46.2803 689.983 45.8939 690.294 45.4091C690.605 44.9242 690.76 44.375 690.76 43.7614V41.9091C690.608 42.0076 690.4 42.0985 690.135 42.1818C689.877 42.2576 689.586 42.3295 689.26 42.3977C688.934 42.4583 688.608 42.5152 688.283 42.5682C687.957 42.6136 687.661 42.6553 687.396 42.6932C686.828 42.7765 686.332 42.9091 685.908 43.0909C685.483 43.2727 685.154 43.5189 684.919 43.8295C684.684 44.1326 684.567 44.5114 684.567 44.9659C684.567 45.625 684.805 46.1288 685.283 46.4773C685.768 46.8182 686.381 46.9886 687.124 46.9886ZM704.163 26.7273V50H699.322V26.7273H704.163ZM711.03 56.5455C710.416 56.5455 709.84 56.4962 709.303 56.3977C708.772 56.3068 708.333 56.1894 707.984 56.0455L709.075 52.4318C709.643 52.6061 710.155 52.7008 710.609 52.7159C711.071 52.7311 711.469 52.625 711.803 52.3977C712.143 52.1705 712.42 51.7841 712.632 51.2386L712.916 50.5L706.655 32.5455H711.746L715.359 45.3636H715.541L719.189 32.5455H724.314L717.53 51.8864C717.204 52.8258 716.761 53.6439 716.2 54.3409C715.647 55.0455 714.946 55.5871 714.098 55.9659C713.25 56.3523 712.227 56.5455 711.03 56.5455ZM741.314 37.5227L736.882 37.7955C736.806 37.4167 736.643 37.0758 736.393 36.7727C736.143 36.4621 735.814 36.2159 735.405 36.0341C735.003 35.8447 734.522 35.75 733.962 35.75C733.212 35.75 732.579 35.9091 732.064 36.2273C731.549 36.5379 731.291 36.9545 731.291 37.4773C731.291 37.8939 731.458 38.2462 731.791 38.5341C732.125 38.822 732.696 39.053 733.507 39.2273L736.666 39.8636C738.363 40.2121 739.628 40.7727 740.462 41.5455C741.295 42.3182 741.712 43.3333 741.712 44.5909C741.712 45.7348 741.375 46.7386 740.7 47.6023C740.034 48.4659 739.117 49.1402 737.95 49.625C736.791 50.1023 735.454 50.3409 733.939 50.3409C731.628 50.3409 729.787 49.8598 728.416 48.8977C727.053 47.928 726.253 46.6098 726.018 44.9432L730.78 44.6932C730.924 45.3977 731.272 45.9356 731.825 46.3068C732.378 46.6705 733.087 46.8523 733.95 46.8523C734.799 46.8523 735.481 46.6894 735.996 46.3636C736.518 46.0303 736.784 45.6023 736.791 45.0795C736.784 44.6402 736.598 44.2803 736.234 44C735.871 43.7121 735.31 43.4924 734.553 43.3409L731.53 42.7386C729.825 42.3977 728.556 41.8068 727.723 40.9659C726.897 40.125 726.484 39.053 726.484 37.75C726.484 36.6288 726.787 35.6629 727.393 34.8523C728.007 34.0417 728.867 33.4167 729.973 32.9773C731.087 32.5379 732.39 32.3182 733.882 32.3182C736.087 32.3182 737.821 32.7841 739.087 33.7159C740.359 34.6477 741.102 35.9167 741.314 37.5227ZM754.044 32.5455V36.1818H743.533V32.5455H754.044ZM745.919 28.3636H750.76V44.6364C750.76 45.0833 750.828 45.4318 750.964 45.6818C751.101 45.9242 751.29 46.0947 751.533 46.1932C751.783 46.2917 752.071 46.3409 752.396 46.3409C752.624 46.3409 752.851 46.322 753.078 46.2841C753.305 46.2386 753.48 46.2045 753.601 46.1818L754.362 49.7841C754.12 49.8598 753.779 49.947 753.339 50.0455C752.9 50.1515 752.366 50.2159 751.737 50.2386C750.571 50.2841 749.548 50.1288 748.669 49.7727C747.798 49.4167 747.12 48.8636 746.635 48.1136C746.15 47.3636 745.911 46.4167 745.919 45.2727V28.3636Z" fill="#F5F5F5"/>
<path d="M637.293 200.707C637.683 201.098 638.317 201.098 638.707 200.707L645.071 194.343C645.462 193.953 645.462 193.319 645.071 192.929C644.681 192.538 644.047 192.538 643.657 192.929L638 198.586L632.343 192.929C631.953 192.538 631.319 192.538 630.929 192.929C630.538 193.319 630.538 193.953 630.929 194.343L637.293 200.707ZM637 79V200H639V79H637Z" fill="#D23636"/>
</svg>
