<svg xmlns="http://www.w3.org/2000/svg" width="32" height="32" id="seo">
  <g color="#000">
    <path fill="#2b4255" d="M2.5 1022.361a.5.5 0 0 0-.5.5v23a.5.5 0 0 0 .5.5H24v-1H3v-22h22v19.312h1v-19.812a.5.5 0 0 0-.5-.5h-23z" font-family="sans-serif" font-weight="400" overflow="visible" style="line-height:normal;text-indent:0;text-align:start;text-decoration-line:none;text-decoration-style:solid;text-decoration-color:#000;text-transform:none;block-progression:tb;isolation:auto;mix-blend-mode:normal" transform="translate(0 -1020.362)"></path>
    <path fill="#2b4255" fill-rule="evenodd" d="M2.5 1026.361v1h23v-1h-23z" font-family="sans-serif" font-weight="400" overflow="visible" style="line-height:normal;text-indent:0;text-align:start;text-decoration-line:none;text-decoration-style:solid;text-decoration-color:#000;text-transform:none;block-progression:tb;isolation:auto;mix-blend-mode:normal" transform="translate(0 -1020.362)"></path>
    <path fill="#f05542" d="M5 1024.862a.5.5 0 0 1-.5.5.5.5 0 0 1-.5-.5.5.5 0 0 1 .5-.5.5.5 0 0 1 .5.5zm2 0a.5.5 0 0 1-.5.5.5.5 0 0 1-.5-.5.5.5 0 0 1 .5-.5.5.5 0 0 1 .5.5zm2 0a.5.5 0 0 1-.5.5.5.5 0 0 1-.5-.5.5.5 0 0 1 .5-.5.5.5 0 0 1 .5.5z" overflow="visible" style="isolation:auto;mix-blend-mode:normal" transform="translate(0 -1020.362)"></path>
    <path fill="#f05542" d="M13.5 1034.361a.5.5 0 0 0-.5.5v9a.5.5 0 0 0 .5.5h2a.5.5 0 0 0 .5-.5v-9a.5.5 0 0 0-.5-.5h-2zm.5 1h1v8h-1v-8zm3.5 1a.5.5 0 0 0-.5.5v7a.5.5 0 0 0 .5.5h2a.5.5 0 0 0 .5-.5v-7a.5.5 0 0 0-.5-.5h-2zm.5 1h1v6h-1v-6zm-8.5 4a.5.5 0 0 0-.5.5v2a.5.5 0 0 0 .5.5h2a.5.5 0 0 0 .5-.5v-2a.5.5 0 0 0-.5-.5h-2zm.5 1h1v1h-1v-1zm-4.5-4a.5.5 0 0 0-.5.5v5a.5.5 0 0 0 .5.5h2a.5.5 0 0 0 .5-.5v-5a.5.5 0 0 0-.5-.5h-2zm.5 1h1v4H6v-4z" font-family="sans-serif" font-weight="400" overflow="visible" style="line-height:normal;text-indent:0;text-align:start;text-decoration-line:none;text-decoration-style:solid;text-decoration-color:#000;text-transform:none;block-progression:tb;isolation:auto;mix-blend-mode:normal" transform="translate(0 -1020.362)"></path>
    <path fill="#2b4255" fill-rule="evenodd" d="M24.29 1040.824a.5.5 0 0 0-.347.147l-2.49 2.49a.5.5 0 0 0 0 .707l5.174 5.176c1.703 1.77 4.967-1.494 3.197-3.197l-5.174-5.176a.5.5 0 0 0-.36-.147zm.007 1.207 4.828 4.828a.5.5 0 0 0 .006.01c.804.775-1.009 2.59-1.783 1.786a.5.5 0 0 0-.006-.01l-4.828-4.828 1.783-1.784z" font-family="sans-serif" font-weight="400" overflow="visible" style="line-height:normal;text-indent:0;text-align:start;text-decoration-line:none;text-decoration-style:solid;text-decoration-color:#000;text-transform:none;block-progression:tb;isolation:auto;mix-blend-mode:normal" transform="translate(0 -1020.362)"></path>
    <path fill="#2b4255" fill-rule="evenodd" d="M21.184 1038.955a.5.5 0 0 0-.35.86l2.361 2.36a.5.5 0 1 0 .707-.706l-2.361-2.362a.5.5 0 0 0-.357-.152z" font-family="sans-serif" font-weight="400" overflow="visible" style="line-height:normal;text-indent:0;text-align:start;text-decoration-line:none;text-decoration-style:solid;text-decoration-color:#000;text-transform:none;block-progression:tb;isolation:auto;mix-blend-mode:normal" transform="translate(0 -1020.362)"></path>
    <path fill="#2b4255" d="M11.646 1030.852c-2.611 2.612-2.649 6.834-.07 9.413 2.578 2.578 6.801 2.542 9.413-.07 2.61-2.61 2.647-6.834.069-9.413-2.579-2.579-6.8-2.541-9.412.07zm.707.707c2.235-2.235 5.807-2.26 7.997-.07 2.19 2.19 2.167 5.765-.069 8-2.235 2.235-5.808 2.26-7.998.069-2.19-2.19-2.165-5.763.07-7.998z" font-family="sans-serif" font-weight="400" overflow="visible" style="line-height:normal;text-indent:0;text-align:start;text-decoration-line:none;text-decoration-style:solid;text-decoration-color:#000;text-transform:none;block-progression:tb;isolation:auto;mix-blend-mode:normal" transform="translate(0 -1020.362)"></path>
    <path fill="#2b4255" fill-rule="evenodd" d="M19.938 1040.201a.5.5 0 0 0-.348.858l2.361 2.363a.5.5 0 1 0 .707-.707l-2.361-2.363a.5.5 0 0 0-.36-.15z" font-family="sans-serif" font-weight="400" overflow="visible" style="line-height:normal;text-indent:0;text-align:start;text-decoration-line:none;text-decoration-style:solid;text-decoration-color:#000;text-transform:none;block-progression:tb;isolation:auto;mix-blend-mode:normal" transform="translate(0 -1020.362)"></path>
  </g>
</svg>
