<svg width="1247" height="411" viewBox="0 0 1247 411" fill="none" xmlns="http://www.w3.org/2000/svg">
<path d="M530.926 12.0395L541.375 12.0273L550.264 33.6306L550.673 33.6301L559.512 12.0061L569.96 11.9939L570.001 46.903L561.785 46.9126L561.76 25.4694L561.471 25.4698L553.109 46.7011L547.859 46.7073L539.448 25.3761L539.158 25.3765L539.183 46.939L530.967 46.9486L530.926 12.0395ZM580.372 56.7091C579.372 56.7102 578.429 56.6318 577.542 56.4737C576.656 56.3271 575.894 56.1291 575.257 55.8798L577.091 49.8265C577.91 50.0983 578.649 50.2565 579.308 50.3012C579.978 50.3459 580.552 50.2373 581.029 49.9754C581.517 49.7248 581.892 49.2755 582.152 48.6275L582.475 47.843L573.137 20.7175L581.864 20.7073L586.71 39.3835L586.983 39.3832L591.853 20.6957L600.631 20.6854L590.795 49.3844C590.32 50.8168 589.645 52.0789 588.771 53.1709C587.909 54.2741 586.791 55.1391 585.416 55.7657C584.053 56.3923 582.372 56.7067 580.372 56.7091ZM633.011 22.3862C632.896 21.1364 632.389 20.1654 631.491 19.4732C630.603 18.7697 629.336 18.4189 627.688 18.4209C626.597 18.4221 625.688 18.5652 624.961 18.8502C624.234 19.1351 623.689 19.5278 623.326 20.0282C622.963 20.5173 622.777 21.08 622.766 21.7164C622.744 22.2391 622.847 22.6992 623.074 23.0967C623.313 23.4942 623.655 23.846 624.098 24.1523C624.553 24.4473 625.099 24.708 625.736 24.9345C626.372 25.161 627.088 25.3591 627.884 25.5286L630.885 26.2069C632.612 26.5799 634.136 27.0781 635.455 27.7016C636.785 28.325 637.899 29.068 638.798 29.9306C639.708 30.7932 640.397 31.7867 640.864 32.9112C641.331 34.0356 641.572 35.2967 641.585 36.6944C641.576 38.899 641.021 40.7917 639.921 42.3725C638.82 43.9533 637.236 45.1654 635.169 46.0087C633.113 46.8521 630.631 47.2754 627.722 47.2788C624.801 47.2822 622.255 46.8477 620.084 45.9752C617.912 45.1028 616.223 43.7752 615.017 41.9925C613.81 40.2098 613.188 37.9549 613.151 35.2276L621.231 35.2182C621.3 36.3431 621.602 37.2803 622.137 38.0296C622.672 38.779 623.406 39.3463 624.338 39.7316C625.282 40.1169 626.373 40.3088 627.611 40.3073C628.748 40.306 629.714 40.1515 630.509 39.8437C631.315 39.536 631.934 39.1091 632.365 38.5631C632.796 38.0172 633.017 37.3919 633.028 36.6874C633.016 36.0283 632.81 35.466 632.412 35.0006C632.014 34.5238 631.4 34.1154 630.57 33.7755C629.751 33.4242 628.705 33.1015 627.432 32.8075L623.784 31.9595C620.76 31.2699 618.378 30.1533 616.638 28.6099C614.897 27.0551 614.031 24.9539 614.039 22.3061C614.025 20.147 614.603 18.2543 615.771 16.628C616.94 15.0016 618.558 13.7327 620.625 12.8212C622.692 11.9096 625.049 11.4523 627.697 11.4493C630.402 11.4461 632.749 11.9036 634.738 12.8217C636.74 13.7285 638.292 15.0051 639.396 16.6515C640.501 18.298 641.065 20.2064 641.091 22.3768L633.011 22.3862ZM653.367 39.9364L653.389 29.9988L654.548 29.9975L661.901 20.6139L671.344 20.6029L660.417 34.0474L658.218 34.05L653.367 39.9364ZM645.858 46.8144L645.817 11.9054L654.152 11.8957L654.193 46.8047L645.858 46.8144ZM662.119 46.7955L655.254 35.9285L660.736 30.0073L671.75 46.7842L662.119 46.7955ZM674.358 46.7812L674.327 20.5994L682.662 20.5896L682.693 46.7715L674.358 46.7812ZM678.5 17.5434C677.329 17.5447 676.323 17.1595 675.481 16.3878C674.639 15.6047 674.218 14.662 674.217 13.5597C674.215 12.4688 674.635 11.5365 675.475 10.7628C676.315 9.97773 677.32 9.58451 678.49 9.58315C679.672 9.58177 680.678 9.97264 681.509 10.7558C682.351 11.5275 682.772 12.4588 682.773 13.5497C682.775 14.652 682.355 15.5957 681.515 16.3808C680.687 17.1545 679.682 17.542 678.5 17.5434ZM696.293 11.8465L696.334 46.7555L687.998 46.7653L687.958 11.8562L696.293 11.8465ZM709.933 11.8305L709.974 46.7396L701.639 46.7493L701.598 11.8403L709.933 11.8305ZM738.116 28.5192L730.463 28.7327C730.383 28.1874 730.166 27.7047 729.814 27.2846C729.461 26.8532 729 26.5185 728.432 26.2805C727.875 26.0312 727.227 25.907 726.488 25.9078C725.522 25.9089 724.699 26.1031 724.017 26.4902C723.347 26.8774 723.018 27.4005 723.03 28.0596C723.02 28.571 723.225 29.0139 723.646 29.3884C724.078 29.7629 724.845 30.0631 725.948 30.2891L730.994 31.2378C733.609 31.7347 735.553 32.562 736.827 33.7196C738.112 34.8772 738.762 36.4105 738.775 38.3196C738.766 40.1151 738.234 41.6782 737.179 43.009C736.135 44.3397 734.704 45.3755 732.887 46.1163C731.069 46.8457 728.99 47.2117 726.649 47.2145C722.911 47.2188 719.961 46.4552 717.8 44.9237C715.651 43.3807 714.421 41.314 714.111 38.7234L722.344 38.5093C722.527 39.4636 722.999 40.1903 723.761 40.6894C724.523 41.1885 725.495 41.4374 726.677 41.436C727.745 41.4348 728.614 41.2349 729.284 40.8364C729.954 40.4379 730.294 39.9091 730.305 39.25C730.293 38.6591 730.031 38.1878 729.519 37.8361C729.007 37.4731 728.206 37.1899 727.115 36.9866L722.546 36.1227C719.92 35.6484 717.964 34.77 716.679 33.4875C715.393 32.1935 714.755 30.5465 714.764 28.5465C714.751 26.7965 715.215 25.3017 716.156 24.0619C717.098 22.8108 718.438 21.8547 720.176 21.1936C721.914 20.5325 723.964 20.2005 726.328 20.1978C729.874 20.1936 732.67 20.9347 734.717 22.4209C736.764 23.8958 737.897 25.9286 738.116 28.5192Z" fill="#F5F5F5"/>
<line x1="565.696" y1="80.908" x2="565.841" y2="204.908" stroke="#D23636"/>
<line x1="565.342" y1="205.409" x2="265.781" y2="205.758" stroke="#D23636"/>
<path d="M265.158 277.966C265.549 278.356 266.182 278.355 266.572 277.964L272.928 271.593C273.318 271.202 273.318 270.569 272.927 270.179C272.536 269.789 271.903 269.79 271.512 270.181L265.862 275.844L260.199 270.194C259.808 269.804 259.175 269.804 258.785 270.195C258.395 270.586 258.395 271.22 258.786 271.61L265.158 277.966ZM264.78 205.259L264.864 277.259L266.864 277.257L266.78 205.257L264.78 205.259Z" fill="#D23636"/>
<line y1="-0.5" x2="124.007" y2="-0.5" transform="matrix(0.0120979 0.999927 -0.999975 0.00711675 688.545 80.7646)" stroke="#D23636"/>
<line x1="690.045" y1="204.263" x2="969.273" y2="203.937" stroke="#D23636"/>
<path d="M968.652 277.145C969.043 277.535 969.676 277.534 970.066 277.143L976.422 270.772C976.812 270.381 976.812 269.748 976.421 269.358C976.03 268.968 975.397 268.968 975.007 269.359L969.356 275.023L963.693 269.373C963.302 268.982 962.669 268.983 962.279 269.374C961.889 269.765 961.889 270.398 962.28 270.788L968.652 277.145ZM968.274 204.438L968.358 276.438L970.358 276.436L970.274 204.436L968.274 204.438Z" fill="#D23636"/>
<path d="M210.02 334.323L209.993 311.051L225.402 311.033L225.406 315.09L214.918 315.102L214.924 320.647L224.39 320.636L224.395 324.693L214.929 324.704L214.94 334.318L210.02 334.323ZM228.366 334.302L228.346 316.847L233.039 316.842L233.043 319.887L233.225 319.887C233.542 318.804 234.075 317.985 234.824 317.431C235.573 316.869 236.437 316.588 237.414 316.587C237.656 316.587 237.918 316.601 238.198 316.631C238.478 316.661 238.725 316.703 238.937 316.756L238.942 321.051C238.715 320.983 238.4 320.923 237.998 320.87C237.597 320.818 237.229 320.792 236.896 320.792C236.184 320.793 235.548 320.949 234.988 321.26C234.435 321.564 233.996 321.989 233.671 322.534C233.353 323.08 233.195 323.709 233.196 324.421L233.207 334.296L228.366 334.302ZM248.534 334.619C246.769 334.621 245.242 334.248 243.954 333.5C242.672 332.744 241.683 331.692 240.984 330.344C240.285 328.989 239.935 327.417 239.933 325.629C239.931 323.826 240.278 322.25 240.973 320.901C241.668 319.544 242.656 318.49 243.935 317.738C245.222 316.979 246.748 316.599 248.513 316.597C250.279 316.595 251.802 316.972 253.083 317.728C254.372 318.476 255.365 319.528 256.064 320.883C256.762 322.231 257.113 323.806 257.115 325.609C257.117 327.397 256.77 328.97 256.075 330.326C255.379 331.676 254.388 332.73 253.101 333.489C251.822 334.241 250.3 334.617 248.534 334.619ZM248.553 330.869C249.356 330.868 250.026 330.64 250.563 330.185C251.101 329.722 251.505 329.093 251.777 328.297C252.056 327.502 252.196 326.596 252.194 325.581C252.193 324.566 252.052 323.661 251.771 322.866C251.497 322.07 251.091 321.442 250.553 320.981C250.014 320.519 249.343 320.289 248.54 320.29C247.73 320.291 247.048 320.523 246.496 320.985C245.951 321.448 245.539 322.077 245.259 322.873C244.988 323.669 244.852 324.574 244.853 325.59C244.855 326.605 244.992 327.51 245.266 328.305C245.547 329.1 245.961 329.728 246.507 330.19C247.06 330.644 247.742 330.87 248.553 330.869ZM265.102 324.168L265.114 334.259L260.273 334.265L260.252 316.81L264.866 316.805L264.87 319.884L265.074 319.884C265.459 318.869 266.106 318.065 267.014 317.473C267.923 316.873 269.025 316.573 270.32 316.571C271.532 316.57 272.589 316.834 273.492 317.363C274.394 317.892 275.095 318.649 275.596 319.633C276.098 320.61 276.349 321.776 276.351 323.132L276.364 334.246L271.523 334.252L271.511 324.002C271.517 322.933 271.243 322.1 270.69 321.503C270.136 320.897 269.374 320.595 268.404 320.596C267.753 320.597 267.177 320.738 266.678 321.019C266.186 321.299 265.8 321.709 265.52 322.247C265.248 322.778 265.108 323.418 265.102 324.168ZM289.443 316.776L289.447 320.412L278.935 320.425L278.931 316.788L289.443 316.776ZM281.313 312.604L286.154 312.598L286.173 328.871C286.173 329.318 286.242 329.666 286.378 329.916C286.515 330.158 286.705 330.329 286.947 330.427C287.197 330.525 287.485 330.574 287.811 330.574C288.038 330.573 288.266 330.554 288.493 330.516C288.72 330.47 288.894 330.436 289.015 330.413L289.781 334.014C289.539 334.09 289.198 334.178 288.758 334.277C288.319 334.384 287.785 334.449 287.156 334.472C285.99 334.519 284.967 334.365 284.088 334.01C283.216 333.655 282.537 333.102 282.052 332.353C281.566 331.604 281.326 330.657 281.332 329.513L281.313 312.604ZM302.947 322.738L302.951 326.579L292.338 326.591L292.333 322.75L302.947 322.738ZM315.04 334.542C313.245 334.544 311.699 334.182 310.402 333.456C309.114 332.723 308.12 331.686 307.422 330.346C306.723 328.998 306.373 327.404 306.37 325.563C306.368 323.768 306.715 322.192 307.41 320.835C308.106 319.478 309.086 318.42 310.35 317.661C311.622 316.902 313.114 316.521 314.826 316.519C315.977 316.518 317.05 316.702 318.042 317.072C319.043 317.435 319.915 317.983 320.658 318.717C321.409 319.451 321.993 320.375 322.411 321.488C322.829 322.593 323.039 323.888 323.041 325.373L323.042 326.703L308.304 326.72L308.3 323.72L318.482 323.708C318.481 323.011 318.329 322.394 318.025 321.856C317.722 321.319 317.301 320.899 316.762 320.597C316.232 320.287 315.614 320.132 314.91 320.133C314.175 320.134 313.523 320.305 312.956 320.646C312.395 320.98 311.957 321.432 311.639 322C311.322 322.561 311.159 323.186 311.153 323.876L311.156 326.728C311.157 327.592 311.317 328.338 311.636 328.966C311.962 329.595 312.421 330.079 313.013 330.419C313.604 330.759 314.305 330.929 315.115 330.928C315.653 330.927 316.146 330.851 316.592 330.699C317.039 330.547 317.422 330.319 317.739 330.016C318.057 329.712 318.299 329.341 318.465 328.901L322.943 329.192C322.717 330.268 322.252 331.208 321.548 332.011C320.852 332.808 319.952 333.43 318.846 333.878C317.748 334.319 316.479 334.54 315.04 334.542ZM331.039 324.091L331.051 334.182L326.21 334.188L326.19 316.733L330.803 316.728L330.807 319.807L331.012 319.807C331.397 318.792 332.043 317.988 332.952 317.396C333.86 316.796 334.962 316.496 336.258 316.494C337.47 316.493 338.527 316.757 339.429 317.286C340.331 317.815 341.033 318.572 341.534 319.556C342.035 320.533 342.286 321.699 342.288 323.055L342.301 334.169L337.46 334.175L337.448 323.925C337.454 322.856 337.181 322.023 336.627 321.426C336.073 320.82 335.312 320.518 334.342 320.519C333.69 320.52 333.115 320.661 332.615 320.942C332.123 321.223 331.737 321.632 331.457 322.17C331.185 322.701 331.046 323.341 331.039 324.091ZM352.548 334.441C351.223 334.443 350.022 334.103 348.945 333.423C347.876 332.734 347.026 331.724 346.396 330.391C345.773 329.051 345.461 327.408 345.458 325.461C345.456 323.461 345.776 321.797 346.419 320.471C347.061 319.137 347.916 318.14 348.983 317.479C350.058 316.811 351.236 316.477 352.516 316.475C353.493 316.474 354.308 316.64 354.96 316.972C355.619 317.297 356.15 317.706 356.552 318.198C356.962 318.682 357.273 319.159 357.486 319.629L357.633 319.628L357.623 310.878L362.453 310.873L362.48 334.145L357.707 334.151L357.704 331.356L357.499 331.356C357.273 331.841 356.951 332.322 356.535 332.8C356.127 333.27 355.593 333.661 354.934 333.972C354.283 334.284 353.488 334.44 352.548 334.441ZM354.078 330.587C354.858 330.586 355.517 330.373 356.055 329.948C356.6 329.516 357.016 328.913 357.303 328.14C357.597 327.367 357.744 326.462 357.743 325.424C357.741 324.386 357.596 323.484 357.308 322.72C357.019 321.955 356.601 321.364 356.055 320.948C355.51 320.532 354.846 320.325 354.066 320.326C353.271 320.327 352.6 320.543 352.056 320.976C351.511 321.408 351.098 322.007 350.819 322.773C350.54 323.538 350.4 324.425 350.402 325.432C350.403 326.447 350.544 327.345 350.825 328.125C351.114 328.897 351.528 329.503 352.066 329.942C352.612 330.373 353.283 330.588 354.078 330.587Z" fill="#F5F5F5"/>
<path d="M895.994 333.523L895.967 310.25L905.285 310.239C906.997 310.237 908.426 310.489 909.57 310.995C910.715 311.502 911.575 312.205 912.152 313.106C912.729 313.999 913.018 315.029 913.019 316.196C913.02 317.105 912.84 317.904 912.477 318.594C912.114 319.277 911.615 319.838 910.979 320.278C910.35 320.71 909.631 321.018 908.821 321.201L908.821 321.428C909.707 321.465 910.537 321.714 911.31 322.175C912.091 322.636 912.725 323.283 913.21 324.116C913.696 324.941 913.94 325.926 913.941 327.07C913.943 328.305 913.637 329.407 913.025 330.378C912.42 331.341 911.523 332.103 910.334 332.665C909.145 333.227 907.68 333.509 905.937 333.511L895.994 333.523ZM900.91 329.494L904.921 329.489C906.293 329.488 907.292 329.225 907.92 328.702C908.549 328.171 908.862 327.466 908.861 326.587C908.86 325.943 908.704 325.375 908.393 324.883C908.082 324.391 907.638 324.005 907.062 323.726C906.494 323.446 905.816 323.307 905.028 323.308L900.903 323.312L900.91 329.494ZM900.899 319.983L904.547 319.979C905.221 319.978 905.819 319.86 906.342 319.624C906.872 319.381 907.288 319.04 907.59 318.6C907.9 318.16 908.055 317.634 908.054 317.02C908.053 316.179 907.753 315.501 907.154 314.987C906.563 314.472 905.722 314.216 904.631 314.217L900.892 314.221L900.899 319.983ZM922.037 333.822C920.924 333.823 919.931 333.631 919.059 333.246C918.188 332.853 917.497 332.274 916.989 331.51C916.488 330.737 916.237 329.776 916.236 328.624C916.234 327.654 916.412 326.84 916.767 326.18C917.122 325.521 917.606 324.99 918.22 324.588C918.833 324.185 919.529 323.882 920.309 323.676C921.097 323.471 921.923 323.326 922.786 323.241C923.801 323.134 924.619 323.035 925.24 322.943C925.861 322.844 926.312 322.699 926.592 322.51C926.872 322.32 927.012 322.039 927.012 321.668L927.012 321.6C927.011 320.88 926.783 320.324 926.328 319.93C925.88 319.537 925.244 319.341 924.418 319.342C923.547 319.343 922.854 319.537 922.339 319.924C921.824 320.303 921.484 320.781 921.318 321.357L916.84 320.998C917.066 319.937 917.512 319.02 918.178 318.247C918.844 317.466 919.703 316.866 920.756 316.448C921.816 316.023 923.043 315.809 924.437 315.808C925.406 315.806 926.334 315.919 927.221 316.145C928.115 316.372 928.907 316.723 929.597 317.199C930.295 317.676 930.845 318.289 931.247 319.038C931.65 319.78 931.851 320.67 931.853 321.708L931.866 333.481L927.275 333.486L927.273 331.066L927.136 331.066C926.857 331.612 926.482 332.093 926.013 332.51C925.544 332.92 924.98 333.243 924.321 333.478C923.662 333.706 922.901 333.821 922.037 333.822ZM923.42 330.479C924.132 330.478 924.76 330.338 925.305 330.057C925.851 329.768 926.278 329.381 926.588 328.896C926.898 328.411 927.053 327.861 927.052 327.248L927.05 325.395C926.899 325.494 926.69 325.585 926.425 325.669C926.168 325.745 925.876 325.817 925.551 325.886C925.225 325.947 924.899 326.004 924.574 326.057C924.248 326.103 923.952 326.145 923.687 326.183C923.119 326.267 922.623 326.401 922.199 326.583C921.775 326.765 921.446 327.012 921.211 327.323C920.977 327.626 920.86 328.005 920.86 328.46C920.861 329.119 921.1 329.622 921.578 329.97C922.063 330.31 922.677 330.48 923.42 330.479ZM943.509 333.808C941.721 333.81 940.183 333.433 938.894 332.677C937.613 331.913 936.627 330.854 935.936 329.499C935.252 328.143 934.909 326.583 934.907 324.818C934.905 323.03 935.248 321.462 935.936 320.112C936.631 318.756 937.619 317.698 938.898 316.938C940.178 316.172 941.7 315.787 943.465 315.785C944.988 315.784 946.321 316.059 947.466 316.61C948.611 317.162 949.517 317.937 950.185 318.937C950.852 319.936 951.221 321.11 951.291 322.458L946.723 322.463C946.593 321.592 946.251 320.892 945.698 320.362C945.152 319.825 944.435 319.557 943.549 319.558C942.799 319.559 942.144 319.764 941.584 320.174C941.031 320.576 940.6 321.164 940.29 321.937C939.981 322.71 939.826 323.646 939.828 324.744C939.829 325.858 939.982 326.805 940.286 327.585C940.597 328.365 941.033 328.959 941.594 329.367C942.156 329.776 942.811 329.979 943.561 329.978C944.114 329.978 944.61 329.864 945.049 329.636C945.496 329.408 945.863 329.078 946.15 328.646C946.445 328.206 946.638 327.679 946.728 327.066L951.296 327.06C951.222 328.394 950.86 329.568 950.21 330.584C949.567 331.593 948.678 332.382 947.542 332.951C946.406 333.521 945.062 333.806 943.509 333.808ZM958.784 328.427L958.788 322.62L959.493 322.619L965.076 315.987L970.633 315.981L963.132 324.762L961.984 324.764L958.784 328.427ZM954.403 333.454L954.376 310.182L959.217 310.176L959.244 333.449L954.403 333.454ZM965.312 333.442L960.167 325.845L963.39 322.421L970.983 333.435L965.312 333.442ZM983.296 321.943L983.301 325.784L972.687 325.797L972.682 321.956L983.296 321.943ZM995.389 333.748C993.594 333.75 992.048 333.388 990.752 332.662C989.463 331.929 988.469 330.892 987.771 329.552C987.072 328.204 986.722 326.61 986.72 324.769C986.718 322.974 987.064 321.397 987.76 320.041C988.455 318.684 989.435 317.626 990.699 316.867C991.971 316.108 993.463 315.727 995.175 315.725C996.327 315.724 997.399 315.908 998.392 316.278C999.392 316.641 1000.26 317.189 1001.01 317.923C1001.76 318.657 1002.34 319.58 1002.76 320.693C1003.18 321.799 1003.39 323.094 1003.39 324.579L1003.39 325.909L988.653 325.926L988.649 322.926L998.831 322.914C998.83 322.217 998.678 321.6 998.375 321.062C998.071 320.525 997.65 320.105 997.112 319.802C996.581 319.492 995.963 319.338 995.259 319.339C994.524 319.339 993.873 319.511 993.305 319.852C992.745 320.186 992.306 320.637 991.988 321.206C991.671 321.767 991.509 322.392 991.502 323.082L991.505 325.934C991.506 326.798 991.666 327.544 991.985 328.172C992.312 328.8 992.771 329.285 993.362 329.625C993.953 329.965 994.654 330.135 995.465 330.134C996.003 330.133 996.495 330.057 996.942 329.905C997.389 329.753 997.771 329.525 998.089 329.222C998.406 328.918 998.648 328.547 998.815 328.107L1003.29 328.397C1003.07 329.473 1002.6 330.413 1001.9 331.217C1001.2 332.013 1000.3 332.636 999.195 333.084C998.097 333.525 996.829 333.746 995.389 333.748ZM1011.39 323.297L1011.4 333.388L1006.56 333.394L1006.54 315.939L1011.15 315.934L1011.16 319.013L1011.36 319.013C1011.75 317.997 1012.39 317.194 1013.3 316.602C1014.21 316.002 1015.31 315.702 1016.61 315.7C1017.82 315.699 1018.88 315.963 1019.78 316.492C1020.68 317.021 1021.38 317.778 1021.88 318.762C1022.38 319.739 1022.64 320.905 1022.64 322.261L1022.65 333.375L1017.81 333.38L1017.8 323.13C1017.8 322.062 1017.53 321.229 1016.98 320.631C1016.42 320.026 1015.66 319.724 1014.69 319.725C1014.04 319.726 1013.46 319.867 1012.96 320.147C1012.47 320.428 1012.09 320.838 1011.81 321.376C1011.53 321.907 1011.4 322.547 1011.39 323.297ZM1032.9 333.647C1031.57 333.648 1030.37 333.309 1029.29 332.628C1028.23 331.94 1027.38 330.93 1026.75 329.597C1026.12 328.257 1025.81 326.614 1025.81 324.667C1025.81 322.667 1026.13 321.003 1026.77 319.677C1027.41 318.343 1028.27 317.346 1029.33 316.685C1030.41 316.017 1031.59 315.683 1032.87 315.681C1033.84 315.68 1034.66 315.846 1035.31 316.178C1035.97 316.503 1036.5 316.912 1036.9 317.404C1037.31 317.888 1037.62 318.365 1037.84 318.834L1037.98 318.834L1037.97 310.084L1042.8 310.079L1042.83 333.351L1038.06 333.357L1038.05 330.561L1037.85 330.562C1037.62 331.047 1037.3 331.528 1036.88 332.006C1036.48 332.476 1035.94 332.867 1035.28 333.178C1034.63 333.49 1033.84 333.646 1032.9 333.647ZM1034.43 329.793C1035.21 329.792 1035.87 329.579 1036.4 329.154C1036.95 328.722 1037.36 328.119 1037.65 327.346C1037.95 326.573 1038.09 325.667 1038.09 324.629C1038.09 323.592 1037.95 322.69 1037.66 321.925C1037.37 321.161 1036.95 320.57 1036.4 320.154C1035.86 319.738 1035.2 319.531 1034.42 319.532C1033.62 319.532 1032.95 319.749 1032.4 320.182C1031.86 320.614 1031.45 321.213 1031.17 321.978C1030.89 322.744 1030.75 323.63 1030.75 324.638C1030.75 325.653 1030.89 326.551 1031.17 327.331C1031.46 328.103 1031.88 328.709 1032.42 329.147C1032.96 329.579 1033.63 329.794 1034.43 329.793Z" fill="#F5F5F5"/>
</svg>
